<?xml version="1.0" standalone="no"?><!DOCTYPE svg PUBLIC "-//W3C//DTD SVG 1.1//EN" "http://www.w3.org/Graphics/SVG/1.1/DTD/svg11.dtd"><svg t="1686834347963" class="icon" viewBox="0 0 1024 1024" version="1.1" xmlns="http://www.w3.org/2000/svg" p-id="1157" xmlns:xlink="http://www.w3.org/1999/xlink" width="200" height="200"><path d="M923.7504 450.56l-374.528-350.208a51.2 51.2 0 0 0-69.7344 0L105.0112 450.56a51.2 51.2 0 0 0 34.8672 88.32h52.1728V814.08a92.16 92.16 0 0 0 92.16 92.16h460.3392a92.16 92.16 0 0 0 92.16-92.16v-275.456h52.1728a51.2 51.2 0 0 0 34.8672-88.064z m-487.7312 392.4992v-212.8896a30.72 30.72 0 0 1 30.72-30.72h90.5216a30.72 30.72 0 0 1 30.72 30.72v212.8896z m400.6912-365.8752h-61.44V814.08a30.72 30.72 0 0 1-30.72 30.72h-95.1296v-214.6304a92.16 92.16 0 0 0-92.16-92.16H466.7392a92.16 92.16 0 0 0-92.16 92.16V844.8H284.2112a30.72 30.72 0 0 1-30.72-30.72V477.184h-87.04l25.6-24.1152L247.808 400.896l266.5472-249.2928 266.5984 249.2928 55.7568 52.1728 25.6 24.1152z" fill="#000000" p-id="1158"></path></svg>